<?xml version="1.0" encoding="UTF-8"?>
<svg version="1.1" xmlns="http://www.w3.org/2000/svg" width="747" height="688">
<path d="M0 0 C246.51 0 493.02 0 747 0 C747 227.04 747 454.08 747 688 C500.49 688 253.98 688 0 688 C0 460.96 0 233.92 0 0 Z " fill="#000000" transform="translate(0,0)"/>
<path d="M0 0 C3.54006562 2.63769596 4.79985454 4.21206362 6.1875 8.375 C6.72766234 12.6962987 6.5126256 14.77119532 4.4375 18.625 C1.29546302 22.46526742 -1.58852093 24.45259151 -6.24609375 26.07421875 C-12.92050653 28.65443864 -18.82760453 32.40597098 -24.875 36.1875 C-27.34044884 37.72849889 -29.80740139 39.26699308 -32.27734375 40.80078125 C-32.89951782 41.18779205 -33.52169189 41.57480286 -34.16271973 41.97354126 C-38.39750911 44.57985516 -42.71157405 46.95004338 -47.12890625 49.23046875 C-59.03737664 54.67579055 -59.03737664 54.67579055 -66.73828125 64.45703125 C-67.39809072 68.06211965 -67.23942672 71.52083725 -66.92431641 75.15722656 C-66.7300075 79.01116134 -67.39956632 82.75443185 -67.9375 86.5625 C-68.74210328 93.2299313 -68.9224192 99.64297319 -68.58984375 106.359375 C-68.95173862 111.26082835 -70.76228061 114.42724104 -74.375 117.6875 C-78.42588327 120.49195765 -80.84685686 120.71165377 -85.8125 120.375 C-89.48137827 118.66854499 -92.15324668 116.41414665 -94.8125 113.375 C-96.55358958 108.15173127 -96.38785926 103.51040414 -94.4375 98.4375 C-91.82143813 91.42000703 -91.53476806 83.77612334 -90.8125 76.375 C-102.66191637 83.32266617 -114.45823752 90.35122602 -126.1875 97.5 C-135.68504062 103.28806959 -145.21822989 109.01138426 -154.78924561 114.67715454 C-165.44799946 120.98755225 -176.10319632 127.30447235 -186.71191406 133.69873047 C-187.93202884 134.43305284 -189.15335865 135.16536066 -190.37597656 135.89550781 C-192.0613115 136.90258678 -193.7417104 137.9179123 -195.421875 138.93359375 C-196.37030273 139.50392334 -197.31873047 140.07425293 -198.29589844 140.66186523 C-200.78681297 142.35751398 -202.76272469 144.17507233 -204.8125 146.375 C-203.69617188 146.95765625 -202.57984375 147.5403125 -201.4296875 148.140625 C-192.70368992 152.70751108 -184.01342032 157.3318986 -175.375 162.0625 C-167.12051097 166.57658016 -158.85986652 171.07899442 -150.57785034 175.54238892 C-149.32528784 176.21832335 -148.07358631 176.89585585 -146.82278442 177.57504272 C-145.06905635 178.52694223 -143.3119349 179.47258184 -141.5546875 180.41796875 C-140.5426123 180.96477295 -139.53053711 181.51157715 -138.48779297 182.07495117 C-135.27008884 183.67305532 -135.27008884 183.67305532 -131.8125 184.375 C-129.66298197 183.56321551 -129.66298197 183.56321551 -127.5234375 182.15625 C-126.67797363 181.64392822 -125.83250977 181.13160645 -124.96142578 180.60375977 C-124.04603027 180.03326904 -123.13063477 179.46277832 -122.1875 178.875 C-120.1936476 177.66381701 -118.19881514 176.45424626 -116.203125 175.24609375 C-114.63401367 174.29065674 -114.63401367 174.29065674 -113.03320312 173.31591797 C-107.7137757 170.11022907 -102.32510402 167.02674843 -96.9375 163.9375 C-88.54632857 159.11068708 -80.16975497 154.26030206 -71.8125 149.375 C-62.40265408 143.87544714 -52.96779369 138.42050765 -43.5234375 132.98046875 C-36.2729851 128.80150872 -29.03761731 124.59759494 -21.8125 120.375 C-13.49498113 115.51396984 -5.16036239 110.68373077 3.1875 105.875 C11.6550771 100.99500494 20.11698165 96.10559209 28.5625 91.1875 C29.53985107 90.6188623 30.51720215 90.05022461 31.52416992 89.46435547 C36.38422344 86.627799 41.221316 83.75930232 46.02734375 80.83203125 C46.95047363 80.27088623 47.87360352 79.70974121 48.82470703 79.1315918 C50.565108 78.07016638 52.30197522 77.0029175 54.03466797 75.92895508 C55.18733154 75.2254895 55.18733154 75.2254895 56.36328125 74.5078125 C57.03270752 74.09418457 57.70213379 73.68055664 58.3918457 73.25439453 C60.1875 72.375 60.1875 72.375 63.1875 72.375 C69.92235453 88.12212084 70.40925301 103.97791006 70.46411133 120.82958984 C70.47715505 123.87730762 70.54053625 126.91756734 70.64868164 129.96337891 C71.57615012 156.57563579 71.57615012 156.57563579 66.13989258 162.61914062 C63.07517103 165.18523964 59.76526057 166.92608518 56.10794067 168.50488281 C53.30878786 169.77312869 50.94530581 171.5328335 48.47265625 173.34375 C46.73355925 174.52347405 44.99267316 175.70056504 43.25 176.875 C41.3436004 178.16774816 39.43735118 179.46071813 37.53125 180.75390625 C36.61730469 181.37281738 35.70335937 181.99172852 34.76171875 182.62939453 C31.24919198 185.01127678 27.74694179 187.40781005 24.25 189.8125 C23.63133057 190.23789062 23.01266113 190.66328125 22.37524414 191.1015625 C15.47051281 195.85755469 8.59187663 200.65126991 1.71557617 205.44824219 C-2.72815126 208.54591353 -7.17702525 211.63328015 -11.6640625 214.66796875 C-12.39302734 215.16232422 -13.12199219 215.65667969 -13.87304688 216.16601562 C-15.19667847 217.06137664 -16.52325604 217.95240693 -17.85351562 218.83789062 C-21.58738362 221.36675621 -24.67615623 224.14641082 -27.8125 227.375 C-32.26866387 230.34577591 -36.59816196 230.37918778 -41.8125 229.375 C-45.07183076 226.96044742 -47.01684642 223.96630716 -48.8125 220.375 C-49.38281437 215.70029208 -49.25091751 212.25183502 -47.125 208 C-44.17070167 204.64647216 -41.635209 202.85406349 -37.30078125 201.71484375 C-32.18889018 199.75137383 -27.9126765 196.7227964 -23.375 193.6875 C-21.30350304 192.31883237 -19.23188511 190.95034783 -17.16015625 189.58203125 C-16.1045752 188.88158691 -15.04899414 188.18114258 -13.96142578 187.45947266 C-9.09551063 184.2384164 -4.20357001 181.05766958 0.6875 177.875 C2.59387628 176.63170403 4.50012575 175.38821358 6.40625 174.14453125 C10.34239212 171.57733652 14.28007876 169.0125314 18.21875 166.44921875 C19.21841797 165.79824219 20.21808594 165.14726562 21.24804688 164.4765625 C23.11871149 163.25845531 24.98976265 162.04094137 26.86132812 160.82421875 C28.64267834 159.66390181 30.41136243 158.48393742 32.16772461 157.28613281 C34.49838184 155.81112393 36.71115797 154.6067383 39.17797852 153.40917969 C46.47909054 149.75350248 46.47909054 149.75350248 50.95672607 143.26193237 C52.04676947 137.26794428 51.55783148 131.28895192 51.125 125.25 C51.04964882 123.41694072 50.98122658 121.58358279 50.91992188 119.75 C50.75562311 115.2842178 50.49765283 110.83293001 50.1875 106.375 C37.50283777 113.67763539 24.82414378 120.98948002 12.1875 128.375 C2.7776056 133.87447067 -6.65720569 139.329492 -16.1015625 144.76953125 C-23.35201541 148.94849158 -30.58733863 153.15247989 -37.8125 157.375 C-49.34952664 164.11617224 -60.9210182 170.79666947 -72.49951172 177.46630859 C-78.0842109 180.68378672 -83.66709417 183.90441143 -89.25 187.125 C-90.2301709 187.69017334 -91.2103418 188.25534668 -92.22021484 188.83764648 C-94.18554616 189.97121747 -96.13626195 191.13053909 -98.07086182 192.3157959 C-100.81809419 193.92244845 -103.57298166 195.07783157 -106.5508728 196.19447327 C-111.99213599 198.43741106 -116.93596239 200.8343801 -120.8125 205.375 C-124.22716231 213.87700723 -123.01702714 223.73925482 -122.66796875 232.69921875 C-122.63249176 235.37422821 -122.60453349 238.04826854 -122.58650208 240.7233429 C-122.5276991 247.02297959 -122.37219681 253.31626747 -122.18086177 259.61312085 C-121.9676446 266.78766959 -121.86382475 273.96254065 -121.76864851 281.13947427 C-121.57063958 295.88788099 -121.23699148 310.63132953 -120.8125 325.375 C-119.4925 325.375 -118.1725 325.375 -116.8125 325.375 C-116.8125 324.715 -116.8125 324.055 -116.8125 323.375 C-113.44566085 320.94339395 -112.07899636 320.375 -107.8125 320.375 C-107.8125 319.715 -107.8125 319.055 -107.8125 318.375 C-105.56833701 317.03090238 -103.31807204 315.69970104 -101.0625 314.375 C-100.42828125 313.9934375 -99.7940625 313.611875 -99.140625 313.21875 C-95.67278524 311.19584348 -93.91901746 310.375 -89.8125 310.375 C-89.8125 309.715 -89.8125 309.055 -89.8125 308.375 C-87.95888492 307.20133941 -86.05220308 306.11095427 -84.125 305.0625 C-80.47303802 303.02795708 -78.01267261 301.60446617 -75.25 298.4375 C-71.79483241 295.51389665 -68.97484609 295.62309766 -64.546875 295.80859375 C-60.2177691 296.70533711 -57.57953461 299.01627246 -54.8125 302.375 C-52.95870134 306.08259732 -53.35326132 310.32873485 -53.8125 314.375 C-55.80907127 318.23044798 -57.20957638 319.97305092 -60.8125 322.375 C-62.76752081 322.83117152 -64.7227141 323.28665415 -66.6796875 323.734375 C-70.05485278 324.74816091 -72.79909957 326.56695974 -75.8125 328.375 C-76.4725 328.375 -77.1325 328.375 -77.8125 328.375 C-77.8125 329.035 -77.8125 329.695 -77.8125 330.375 C-80.7825 331.365 -83.7525 332.355 -86.8125 333.375 C-86.8125 334.035 -86.8125 334.695 -86.8125 335.375 C-94.24107143 338.66071429 -94.24107143 338.66071429 -97.8125 339.375 C-97.8125 340.035 -97.8125 340.695 -97.8125 341.375 C-100.7825 342.365 -103.7525 343.355 -106.8125 344.375 C-106.8125 345.035 -106.8125 345.695 -106.8125 346.375 C-108.2687545 347.04619549 -109.72757867 347.71181807 -111.1875 348.375 C-111.99960937 348.74625 -112.81171875 349.1175 -113.6484375 349.5 C-115.8125 350.375 -115.8125 350.375 -117.8125 350.375 C-117.8125 351.035 -117.8125 351.695 -117.8125 352.375 C-121.37010365 354.99088503 -124.45727147 355.86857808 -128.8125 356.375 C-128.8125 357.035 -128.8125 357.695 -128.8125 358.375 C-132.17933915 360.80660605 -133.54600364 361.375 -137.8125 361.375 C-137.8125 362.035 -137.8125 362.695 -137.8125 363.375 C-140.1225 364.035 -142.4325 364.695 -144.8125 365.375 C-145.1425 312.575 -145.4725 259.775 -145.8125 205.375 C-148.7825 204.055 -151.7525 202.735 -154.8125 201.375 C-154.8125 200.715 -154.8125 200.055 -154.8125 199.375 C-155.699375 199.08625 -156.58625 198.7975 -157.5 198.5 C-160.31632424 197.54351252 -163.06333156 196.50701054 -165.8125 195.375 C-165.8125 194.715 -165.8125 194.055 -165.8125 193.375 C-166.65554688 193.12878906 -167.49859375 192.88257813 -168.3671875 192.62890625 C-172.16241621 191.24764954 -175.49224126 189.38335982 -178.9375 187.3125 C-184.07551044 184.12435973 -184.07551044 184.12435973 -189.8125 182.375 C-189.8125 181.715 -189.8125 181.055 -189.8125 180.375 C-190.699375 180.08625 -191.58625 179.7975 -192.5 179.5 C-195.31632424 178.54351252 -198.06333156 177.50701054 -200.8125 176.375 C-200.8125 175.715 -200.8125 175.055 -200.8125 174.375 C-201.699375 174.08625 -202.58625 173.7975 -203.5 173.5 C-206.31632424 172.54351252 -209.06333156 171.50701054 -211.8125 170.375 C-211.8125 169.715 -211.8125 169.055 -211.8125 168.375 C-212.92625 168.065625 -214.04 167.75625 -215.1875 167.4375 C-218.8125 166.375 -218.8125 166.375 -220.8125 165.375 C-220.89210767 192.13052791 -220.92045954 218.88568424 -220.88765812 245.64132118 C-220.87362534 258.06426384 -220.87641593 270.48677883 -220.91870117 282.90966797 C-220.95551119 293.73650525 -220.96086824 304.56282104 -220.92832941 315.38968027 C-220.91219873 321.12355889 -220.91190406 326.85645922 -220.94926643 332.59025955 C-220.98393341 337.98664012 -220.9765639 343.38132633 -220.93687057 348.77765656 C-220.92972376 350.75858765 -220.93797154 352.73964295 -220.96272469 354.72043228 C-221.51761282 364.86641507 -221.51761282 364.86641507 -217.8463726 373.83694077 C-215.53257477 375.40759799 -213.42626954 376.40997938 -210.8125 377.375 C-209.76320312 378.06207031 -208.71390625 378.74914062 -207.6328125 379.45703125 C-206.29863281 380.31361328 -206.29863281 380.31361328 -204.9375 381.1875 C-204.03257812 381.77144531 -203.12765625 382.35539062 -202.1953125 382.95703125 C-199.7980003 384.49838395 -199.7980003 384.49838395 -196.8125 385.375 C-196.91962961 365.72154925 -197.03237112 346.0681384 -197.15183926 326.41475868 C-197.20717566 317.2898653 -197.26065833 308.16496801 -197.30981445 299.04003906 C-197.35265119 291.08905266 -197.39892788 283.13809509 -197.44937855 275.18715322 C-197.47598361 270.97512616 -197.50083678 266.76310484 -197.52157402 262.55104446 C-197.54113 258.58993946 -197.56527063 254.62888936 -197.59299088 250.66783333 C-197.60236683 249.21093173 -197.61004015 247.75401807 -197.61591911 246.29709816 C-197.62417094 244.31405904 -197.63903666 242.33105067 -197.65428162 240.34805298 C-197.66073417 239.23637064 -197.66718672 238.1246883 -197.6738348 236.97931862 C-197.63792552 234.39162796 -197.63792552 234.39162796 -198.8125 232.375 C-199.58370401 228.15090529 -199.67913683 224.73167231 -197.3203125 221.0390625 C-191.65599659 214.52862472 -191.65599659 214.52862472 -186.0625 214.0625 C-181.62805162 214.13480079 -179.20767806 215.44280077 -175.8125 218.375 C-172.94497113 221.77075787 -171.87736962 223.6095385 -171.5 228.0625 C-171.8125 231.375 -171.8125 231.375 -172.8125 234.375 C-172.95057598 236.56423617 -173.0304491 238.7572786 -173.08079529 240.95028687 C-173.09717216 241.62154748 -173.11354903 242.29280809 -173.13042217 242.98440993 C-173.18367381 245.23870935 -173.22962668 247.49309062 -173.27514648 249.74755859 C-173.31087503 251.36235808 -173.34672078 252.97715499 -173.38267517 254.59194946 C-173.7000821 269.352744 -173.88580757 284.11561557 -174.03449917 298.87897301 C-174.13681039 308.80023946 -174.28045286 318.71740981 -174.52709961 328.63623047 C-174.74238679 337.29570092 -174.8793534 345.95229095 -174.92311722 354.61439002 C-174.94884573 359.19625948 -175.01217095 363.77027261 -175.16912651 368.34968185 C-176.5640614 386.66505635 -176.5640614 386.66505635 -170.62718582 403.23920441 C-165.02478582 408.19198308 -158.21253512 411.96859638 -150.8125 413.375 C-146.64595625 412.86252819 -143.73644677 411.40761667 -140.11328125 409.3046875 C-138.44313965 408.34248291 -138.44313965 408.34248291 -136.73925781 407.36083984 C-135.53442941 406.65735636 -134.32967884 405.95373958 -133.125 405.25 C-131.86984292 404.52359988 -130.614303 403.79786091 -129.35839844 403.07275391 C-126.77211914 401.57818775 -124.18813143 400.07977169 -121.60595703 398.578125 C-118.08546756 396.53162755 -114.55765962 394.49825274 -111.02734375 392.46875 C-100.64151088 386.49668172 -90.27916187 380.48570142 -79.9375 374.4375 C-70.13125143 368.70353023 -60.27839477 363.0534128 -50.41064453 357.42626953 C-42.19894472 352.74290238 -34.00034888 348.0374451 -25.8125 343.3125 C-24.78141113 342.71767822 -23.75032227 342.12285645 -22.68798828 341.51000977 C-21.69782715 340.93822998 -20.70766602 340.3664502 -19.6875 339.77734375 C-18.7284375 339.2241748 -17.769375 338.67100586 -16.78125 338.10107422 C-14.67072737 336.87398581 -12.56725914 335.63472904 -10.46875 334.38720703 C-9.3859375 333.74509277 -8.303125 333.10297852 -7.1875 332.44140625 C-5.71410156 331.56077515 -5.71410156 331.56077515 -4.2109375 330.66235352 C-1.8125 329.375 -1.8125 329.375 0.1875 329.375 C0.12578613 328.13935303 0.06407227 326.90370605 0.00048828 325.63061523 C-0.22112536 321.02650823 -0.40132322 316.42153424 -0.56933594 311.81518555 C-0.64763741 309.82545465 -0.7370221 307.83612669 -0.83789062 305.84741211 C-0.98133586 302.98065917 -1.08424622 300.11479804 -1.1796875 297.24609375 C-1.25894974 295.92223915 -1.25894974 295.92223915 -1.33981323 294.57164001 C-1.45628669 289.7910435 -1.03576854 287.05331387 2.08544922 283.32055664 C5.21753123 280.07829894 7.36792066 279.16526971 11.875 278.9375 C16.8605839 278.97357514 19.25571416 280.28608848 22.8125 283.671875 C25.52773455 287.03506325 26.24193282 288.72180619 25.875 293.125 C25.71257812 294.27548828 25.71257812 294.27548828 25.546875 295.44921875 C25.0773861 299.27147079 24.85070213 303.09421195 24.625 306.9375 C24.55962036 308.02853027 24.55962036 308.02853027 24.49291992 309.14160156 C24.38924749 310.88595782 24.28810513 312.63046415 24.1875 314.375 C26.750504 312.93839259 29.3129156 311.50074581 31.875 310.0625 C32.59623047 309.65837891 33.31746094 309.25425781 34.06054688 308.83789062 C34.76630859 308.44150391 35.47207031 308.04511719 36.19921875 307.63671875 C36.84334717 307.27537842 37.48747559 306.91403809 38.15112305 306.54174805 C38.82312744 306.15672119 39.49513184 305.77169434 40.1875 305.375 C41.04246567 305.00652451 41.89743134 304.63804901 42.77830505 304.25840759 C45.52624121 302.53760619 45.52624121 302.53760619 45.79550171 299.13571167 C45.81304022 297.78180689 45.80279764 296.42737533 45.77099609 295.07373047 C45.77333252 294.33362732 45.77566895 293.59352417 45.77807617 292.83099365 C45.77969155 290.38400807 45.74565724 287.93890571 45.7109375 285.4921875 C45.70414991 283.79493897 45.69942661 282.09768103 45.69668579 280.40042114 C45.68600433 276.84430599 45.65929324 273.28881879 45.61962891 269.73291016 C45.56868382 265.16496989 45.54360953 260.5973903 45.52869225 256.02920341 C45.51393192 251.68348096 45.48868337 247.33784419 45.4609375 242.9921875 C45.45357134 241.74069727 45.45357134 241.74069727 45.44605637 240.46392441 C45.42984886 238.11501376 45.40644696 235.76629981 45.38037109 233.41748047 C45.37398117 232.36395889 45.37398117 232.36395889 45.36746216 231.28915405 C45.59433977 228.05156766 45.59433977 228.05156766 44.1875 225.375 C43.61353258 220.37866064 43.63489352 216.46047701 45.9375 211.9375 C50.60667202 206.61983187 50.60667202 206.61983187 54.23046875 206.05859375 C59.70748695 205.77419247 62.96369127 206.64233182 67.1875 210.375 C70.05502887 213.77075787 71.12263038 215.6095385 71.5 220.0625 C71.1875 223.375 71.1875 223.375 70.1875 226.375 C70.10805274 229.2244403 70.08554538 232.04907485 70.10913086 234.89794922 C70.11524624 236.70148662 70.12117307 238.50502467 70.12693787 240.30856323 C70.13161009 241.26504635 70.13628231 242.22152946 70.14109612 243.20699692 C70.16024113 248.26692215 70.14506857 253.32678272 70.13476562 258.38671875 C70.1225055 264.82821807 70.12089953 271.26905259 70.16333008 277.71044922 C70.19670656 282.91442208 70.19131782 288.11708 70.15976143 293.32104874 C70.15483111 295.30418614 70.16414926 297.287412 70.18797112 299.27041245 C70.21936072 302.04618448 70.20122457 304.81756349 70.17163086 307.59326172 C70.19261337 308.41213867 70.21359589 309.23101562 70.23521423 310.07470703 C70.17952522 312.4298468 70.04968788 314.17952008 69.1875 316.375 C66.75986424 318.58983322 64.13834278 319.96868855 61.1875 321.375 C59.76074951 322.21973877 59.76074951 322.21973877 58.30517578 323.08154297 C56.98235596 323.84168701 56.98235596 323.84168701 55.6328125 324.6171875 C54.61977051 325.20040771 53.60672852 325.78362793 52.56298828 326.38452148 C51.49032715 327.00012939 50.41766602 327.6157373 49.3125 328.25 C47.57385176 329.25024569 45.83520498 330.25049393 44.09664917 331.25090027 C42.30424802 332.28209122 40.51149961 333.31267672 38.71875 334.34326172 C35.37257111 336.2676122 32.02961723 338.19750893 28.6875 340.12890625 C11.93491032 349.81008971 -4.85970636 359.41629786 -21.66650391 369.00292969 C-31.91796066 374.85071066 -42.15535323 380.72177316 -52.375 386.625 C-61.46663624 391.87618048 -70.5701918 397.10603883 -79.6875 402.3125 C-80.26491943 402.64224823 -80.84233887 402.97199646 -81.43725586 403.31173706 C-85.56189232 405.66693781 -89.68714248 408.02106255 -93.8125 410.375 C-113.26645966 421.47127627 -113.26645966 421.47127627 -132.6875 432.625 C-133.43588135 433.05466064 -134.1842627 433.48432129 -134.95532227 433.92700195 C-135.64811279 434.32749756 -136.34090332 434.72799316 -137.0546875 435.140625 C-138.02293457 435.6984668 -138.02293457 435.6984668 -139.01074219 436.26757812 C-141.08780841 437.50522238 -141.08780841 437.50522238 -143.9453125 439.734375 C-147.60447419 441.82817324 -148.77951295 441.42552395 -152.8125 440.375 C-155.28356652 439.12169882 -157.58895917 437.84533157 -159.94140625 436.40234375 C-160.61235825 436.00100723 -161.28331024 435.59967072 -161.97459412 435.18617249 C-164.11352026 433.90377787 -166.24421877 432.60837274 -168.375 431.3125 C-169.77878249 430.46854486 -171.18307557 429.62543838 -172.58789062 428.78320312 C-179.97096186 424.34813714 -187.31275478 419.84696312 -194.64282227 415.32495117 C-200.24594965 411.87796832 -205.87402804 408.47201182 -211.5 405.0625 C-213.18899414 404.03866211 -213.18899414 404.03866211 -214.91210938 402.99414062 C-215.48676485 402.64743045 -216.06142032 402.30072028 -216.65348959 401.94350374 C-218.35835781 400.90401099 -220.04621185 399.83677732 -221.73361969 398.76917458 C-224.5471892 397.0441117 -227.37051024 395.6556057 -230.39998627 394.35025597 C-242.24242475 388.8807698 -242.24242475 388.8807698 -244.84504318 383.06946802 C-246.5209054 376.14915666 -246.13276174 369.05656505 -245.95117188 361.99072266 C-245.95592161 359.61297905 -245.96851914 357.23524018 -245.98834229 354.85757446 C-246.01905966 348.4219712 -245.93815754 341.99215746 -245.83518028 335.55748415 C-245.74573104 329.50378695 -245.75246121 323.44984908 -245.74892098 317.39561789 C-245.73881286 305.40479778 -245.64416499 293.41616471 -245.5 281.42626953 C-245.3602833 269.79782964 -245.27542444 258.17077627 -245.25390625 246.54150391 C-245.25256965 245.82436795 -245.25123304 245.107232 -245.24985594 244.36836465 C-245.24720028 242.92361765 -245.24454814 241.47887064 -245.24189952 240.03412362 C-245.24058212 239.32140449 -245.23926473 238.60868535 -245.23790741 237.87436867 C-245.23661149 237.16341969 -245.23531558 236.45247072 -245.23398039 235.71997783 C-245.2117744 224.62451566 -245.14363369 213.52927616 -245.06912503 202.43405885 C-245.04253563 198.41632083 -245.02189723 194.39860366 -245.00539225 190.38081224 C-244.9763005 183.41610444 -244.91560165 176.45257935 -244.82042694 169.48846054 C-244.79328368 167.17501725 -244.77625556 164.86143032 -244.76998138 162.5478363 C-244.75950828 159.39398632 -244.71223607 156.24280904 -244.65515137 153.08950806 C-244.66035026 152.16996609 -244.66554915 151.25042413 -244.67090559 150.30301726 C-244.50624985 144.25777137 -244.50624985 144.25777137 -242.51337528 141.72191119 C-240.24883515 139.78942281 -237.74043427 138.33210373 -235.1875 136.8125 C-232.76598547 135.48771419 -232.76598547 135.48771419 -231.03710938 133.51831055 C-228.49126427 131.0655039 -225.88734722 129.44291513 -222.84375 127.64453125 C-221.96811905 127.12338242 -221.96811905 127.12338242 -221.07479858 126.59170532 C-219.81554911 125.84311065 -218.55469898 125.09720322 -217.29241943 124.35372925 C-214.58567873 122.75938145 -211.88678073 121.15196043 -209.18722534 119.54548645 C-207.78994979 118.71422168 -206.39226074 117.88365161 -204.99417114 117.05375671 C-198.77401346 113.36036567 -192.58418221 109.61847122 -186.40466309 105.85757446 C-184.67290758 104.80361898 -182.94053387 103.75068632 -181.20800781 102.69799805 C-176.02798613 99.55002212 -170.85019842 96.39839674 -165.67440796 93.24346924 C-162.80450227 91.49444555 -159.93373164 89.74684601 -157.0625 88 C-156.21162811 87.48225006 -156.21162811 87.48225006 -155.34356689 86.95404053 C-144.93042328 80.62209712 -134.45261921 74.40173114 -123.96398926 68.19586182 C-116.28732484 63.65212839 -108.63804246 59.08147945 -101.11108398 54.29248047 C-93.18109585 49.28552409 -85.06760852 44.57601555 -76.99542236 39.80340576 C-67.67741963 34.29194049 -58.40986273 28.7160483 -49.23779297 22.96362305 C-44.79568594 20.18719454 -40.32017461 17.48965807 -35.78515625 14.8671875 C-34.77791504 14.28308105 -33.77067383 13.69897461 -32.73291016 13.09716797 C-30.79887099 11.98056032 -28.85999454 10.8722734 -26.91552734 9.77392578 C-22.30065737 7.10818282 -18.85278883 4.8835648 -15.8125 0.375 C-11.16669086 -3.10935686 -4.94707431 -2.51546151 0 0 Z " fill="#5A92F3" transform="translate(461.8125,118.625)"/>
<path d="M0 0 C0.99 0 1.98 0 3 0 C3 227.04 3 454.08 3 688 C2.01 688 1.02 688 0 688 C0 460.96 0 233.92 0 0 Z " fill="#F9F9F9" transform="translate(744,0)"/>
<path d="M0 0 C1.2684375 -0.03287109 1.2684375 -0.03287109 2.5625 -0.06640625 C5 0.5625 5 0.5625 7.28125 2.62890625 C9.44584423 6.32347504 9.53410483 8.79939666 9.5 13.0625 C9.5103125 14.3515625 9.520625 15.640625 9.53125 16.96875 C8.9289652 21.04302952 7.88015591 22.68234409 5 25.5625 C1.90826248 27.10836876 -0.59429552 26.85609521 -4 26.5625 C-6.36497439 24.69541495 -7.66030715 23.24188569 -9 20.5625 C-9.17704592 17.92132311 -9.27741548 15.33053404 -9.3125 12.6875 C-9.34150391 11.96691406 -9.37050781 11.24632812 -9.40039062 10.50390625 C-9.44169142 7.05370158 -9.27485314 4.96062823 -7.29296875 2.08984375 C-4.63807148 0.32141985 -3.1705976 -0.00483323 0 0 Z " fill="#D6D6D6" transform="translate(452,592.4375)"/>
<path d="M0 0 C4 1 4 1 5.703125 3.65234375 C6.21359375 4.73644531 6.7240625 5.82054687 7.25 6.9375 C7.77078125 8.01902344 8.2915625 9.10054687 8.828125 10.21484375 C10 13 10 13 10 15 C10.66 15 11.32 15 12 15 C12.18175781 14.41992188 12.36351562 13.83984375 12.55078125 13.2421875 C14.0418106 8.60852707 15.68333576 4.30237645 18 0 C19.32 0 20.64 0 22 0 C22 8.58 22 17.16 22 26 C20.68 26 19.36 26 18 26 C17.67 21.38 17.34 16.76 17 12 C15.35 15.3 13.7 18.6 12 22 C11.01 22 10.02 22 9 22 C7.68 18.7 6.36 15.4 5 12 C4.67 16.62 4.34 21.24 4 26 C2.68 26 1.36 26 0 26 C0 17.42 0 8.84 0 0 Z " fill="#D7D7D7" transform="translate(405,593)"/>
<path d="M0 0 C1.32 0 2.64 0 4 0 C5.46386719 1.65234375 5.46386719 1.65234375 6.796875 3.9375 C7.28027344 4.74960937 7.76367188 5.56171875 8.26171875 6.3984375 C8.75285156 7.25695312 9.24398437 8.11546875 9.75 9 C10.50990234 10.28777344 10.50990234 10.28777344 11.28515625 11.6015625 C12.53661 13.72667264 13.77002427 15.86238701 15 18 C15.495 9.09 15.495 9.09 16 0 C17.32 0 18.64 0 20 0 C20 8.91 20 17.82 20 27 C18.68 27 17.36 27 16 27 C14.53613281 25.34765625 14.53613281 25.34765625 13.203125 23.0625 C12.71972656 22.25039063 12.23632812 21.43828125 11.73828125 20.6015625 C11.24714844 19.74304688 10.75601563 18.88453125 10.25 18 C9.74339844 17.14148438 9.23679687 16.28296875 8.71484375 15.3984375 C7.46339 13.27332736 6.22997573 11.13761299 5 9 C4.67 14.94 4.34 20.88 4 27 C2.68 27 1.36 27 0 27 C0 18.09 0 9.18 0 0 Z " fill="#D3D3D3" transform="translate(82,592)"/>
<path d="M0 0 C1.92871094 0.15307617 1.92871094 0.15307617 4 1 C5.18847656 2.9777832 5.18847656 2.9777832 6.140625 5.55078125 C6.48867188 6.47697266 6.83671875 7.40316406 7.1953125 8.35742188 C7.54335938 9.33259766 7.89140625 10.30777344 8.25 11.3125 C8.61351562 12.27607422 8.97703125 13.23964844 9.3515625 14.23242188 C10.90007695 18.43262179 12 21.47131812 12 26 C10.68 25.67 9.36 25.34 8 25 C7.505 22.525 7.505 22.525 7 20 C3.37 20 -0.26 20 -4 20 C-4.33 21.65 -4.66 23.3 -5 25 C-6.65 25.33 -8.3 25.66 -10 26 C-8.10648628 20.10906842 -6.03429969 14.29771322 -3.875 8.5 C-3.60929199 7.78134766 -3.34358398 7.06269531 -3.06982422 6.32226562 C-1.11935515 1.11935515 -1.11935515 1.11935515 0 0 Z " fill="#D9D9D9" transform="translate(504,593)"/>
<path d="M0 0 C1.32 0 2.64 0 4 0 C5.50827797 3.76757497 7.00518994 7.53956349 8.5 11.3125 C8.92925781 12.38435547 9.35851562 13.45621094 9.80078125 14.56054688 C10.40986328 16.10258789 10.40986328 16.10258789 11.03125 17.67578125 C11.40830078 18.62364502 11.78535156 19.57150879 12.17382812 20.5480957 C13 23 13 23 13 26 C11.68 26 10.36 26 9 26 C8.67 24.02 8.34 22.04 8 20 C4.04 20 0.08 20 -4 20 C-4.33 21.98 -4.66 23.96 -5 26 C-6.32 26 -7.64 26 -9 26 C-6.56696874 17.12157015 -3.29163506 8.58594775 0 0 Z " fill="#DADADA" transform="translate(619,593)"/>
<path d="M0 0 C-0.71027344 0.49371094 -1.42054688 0.98742187 -2.15234375 1.49609375 C-3.07144531 2.13675781 -3.99054688 2.77742188 -4.9375 3.4375 C-5.85402344 4.07558594 -6.77054688 4.71367187 -7.71484375 5.37109375 C-9.86120706 6.8060882 -9.86120706 6.8060882 -11 8 C-11.11048178 11.09684291 -11.15497721 14.17186 -11.15821838 17.26954651 C-11.16315636 18.25453705 -11.16809434 19.2395276 -11.17318195 20.25436634 C-11.18863949 23.58176651 -11.19693979 26.90914728 -11.20532227 30.23657227 C-11.21489431 32.61107557 -11.22490398 34.98557715 -11.23532104 37.3600769 C-11.25962712 43.1558847 -11.27934288 48.95169525 -11.29707379 54.74752659 C-11.31794251 61.48903725 -11.3444118 68.23052231 -11.37124526 74.97201144 C-11.41895244 86.99524427 -11.46220812 99.01848886 -11.50268555 111.04174805 C-11.54202459 122.72404903 -11.58344697 134.40633955 -11.62768555 146.08862305 C-11.63177196 147.16802786 -11.63177196 147.16802786 -11.63594092 148.26923884 C-11.64962013 151.87912951 -11.66334046 155.48902002 -11.67708123 159.09891045 C-11.7910951 189.06591856 -11.89781975 219.03294907 -12 249 C-12.33 249 -12.66 249 -13 249 C-13.25096869 218.16256979 -13.44562062 187.32537323 -13.56171862 156.48716563 C-13.57547631 152.84601564 -13.58971386 149.20486767 -13.60424805 145.5637207 C-13.60713346 144.83883749 -13.61001888 144.11395427 -13.61299173 143.3671049 C-13.66084968 131.63154014 -13.74757506 119.89656843 -13.84868076 108.16135543 C-13.95156848 96.11881649 -14.01265052 84.076588 -14.03497344 72.03362757 C-14.04870982 65.26943127 -14.08172742 58.50647125 -14.16303062 51.74271965 C-14.23765414 45.3770801 -14.26073656 39.01333993 -14.24418449 32.64730453 C-14.2472127 30.31031917 -14.26912229 27.97327084 -14.31126022 25.63666344 C-14.61422223 7.97163324 -14.61422223 7.97163324 -10.53748512 2.99225044 C-3.46655169 -1.73327584 -3.46655169 -1.73327584 0 0 Z " fill="#16165E" transform="translate(230,254)"/>
<path d="M0 0 C1.32 0 2.64 0 4 0 C5.46386719 1.65234375 5.46386719 1.65234375 6.796875 3.9375 C7.28027344 4.74960937 7.76367188 5.56171875 8.26171875 6.3984375 C8.75285156 7.25695312 9.24398437 8.11546875 9.75 9 C10.50990234 10.28777344 10.50990234 10.28777344 11.28515625 11.6015625 C12.53661 13.72667264 13.77002427 15.86238701 15 18 C15.33 12.39 15.66 6.78 16 1 C16.99 1 17.98 1 19 1 C19 9.58 19 18.16 19 27 C15 26 15 26 13.62792969 24.41772461 C13.22993164 23.75264893 12.83193359 23.08757324 12.421875 22.40234375 C11.98359375 21.68369141 11.5453125 20.96503906 11.09375 20.22460938 C10.6503125 19.46986328 10.206875 18.71511719 9.75 17.9375 C9.29109375 17.17888672 8.8321875 16.42027344 8.359375 15.63867188 C7.22854514 13.76573492 6.11280661 11.88370126 5 10 C4.67 15.61 4.34 21.22 4 27 C2.68 27 1.36 27 0 27 C0 18.09 0 9.18 0 0 Z " fill="#DADADA" transform="translate(636,592)"/>
<path d="M0 0 C5.61 0 11.22 0 17 0 C17 1.32 17 2.64 17 4 C12.71 4 8.42 4 4 4 C4 6.64 4 9.28 4 12 C7.63 12 11.26 12 15 12 C15 13.32 15 14.64 15 16 C11.37 16 7.74 16 4 16 C4 18.31 4 20.62 4 23 C8.29 23 12.58 23 17 23 C17 24.32 17 25.64 17 27 C11.39 27 5.78 27 0 27 C0 18.09 0 9.18 0 0 Z " fill="#C5C5C5" transform="translate(225,592)"/>
<path d="M0 0 C5.61 0 11.22 0 17 0 C17 1.32 17 2.64 17 4 C12.71 4 8.42 4 4 4 C4 6.64 4 9.28 4 12 C7.63 12 11.26 12 15 12 C15 13.32 15 14.64 15 16 C11.37 16 7.74 16 4 16 C4 18.31 4 20.62 4 23 C8.29 23 12.58 23 17 23 C17 24.32 17 25.64 17 27 C11.39 27 5.78 27 0 27 C0 18.09 0 9.18 0 0 Z " fill="#C6C6C6" transform="translate(128,592)"/>
<path d="M0 0 C5 1 5 1 6.4855957 2.67407227 C6.87835693 3.38104248 7.27111816 4.0880127 7.67578125 4.81640625 C8.32836914 5.96206055 8.32836914 5.96206055 8.99414062 7.13085938 C9.42919922 7.93330078 9.86425781 8.73574219 10.3125 9.5625 C10.76689453 10.36880859 11.22128906 11.17511719 11.68945312 12.00585938 C12.80792954 13.99557005 13.90596446 15.99674657 15 18 C15.495 9.09 15.495 9.09 16 0 C16.99 0 17.98 0 19 0 C19 8.25 19 16.5 19 25 C14 24 14 24 12.60620117 22.50952148 C12.25533447 21.88634033 11.90446777 21.26315918 11.54296875 20.62109375 C11.15302734 19.94755859 10.76308594 19.27402344 10.36132812 18.58007812 C9.97396484 17.87302734 9.58660156 17.16597656 9.1875 16.4375 C8.78080078 15.72658203 8.37410156 15.01566406 7.95507812 14.28320312 C6.9552214 12.5305131 5.97561043 10.76630124 5 9 C4.67 14.61 4.34 20.22 4 26 C2.68 26 1.36 26 0 26 C0 17.42 0 8.84 0 0 Z " fill="#E2E2E2" transform="translate(247,593)"/>
<path d="M0 0 C5.61 0 11.22 0 17 0 C17 0.99 17 1.98 17 3 C12.71 3 8.42 3 4 3 C4 5.64 4 8.28 4 11 C7.63 11 11.26 11 15 11 C15 12.32 15 13.64 15 15 C11.37 15 7.74 15 4 15 C4 17.31 4 19.62 4 22 C8.29 22 12.58 22 17 22 C17 23.32 17 24.64 17 26 C11.39 26 5.78 26 0 26 C0 17.42 0 8.84 0 0 Z " fill="#D2D2D2" transform="translate(383,593)"/>
<path d="M0 0 C2.3515625 0.46484375 2.3515625 0.46484375 4.9765625 2.27734375 C6.3515625 4.46484375 6.3515625 4.46484375 6.3515625 7.46484375 C5.0315625 7.46484375 3.7115625 7.46484375 2.3515625 7.46484375 C1.6915625 6.47484375 1.0315625 5.48484375 0.3515625 4.46484375 C-2.71400348 3.73140947 -2.71400348 3.73140947 -5.6484375 3.46484375 C-6.72271221 6.68766788 -6.7817338 9.07995528 -6.7734375 12.46484375 C-6.77601563 13.51671875 -6.77859375 14.56859375 -6.78125 15.65234375 C-6.77197385 18.54611253 -6.77197385 18.54611253 -5.6484375 21.46484375 C-2.73191576 21.63165484 -2.73191576 21.63165484 0.3515625 21.46484375 C2.490111 19.32629525 2.77811313 18.33209061 3.3515625 15.46484375 C1.7015625 15.46484375 0.0515625 15.46484375 -1.6484375 15.46484375 C-1.6484375 14.47484375 -1.6484375 13.48484375 -1.6484375 12.46484375 C0.9915625 12.46484375 3.6315625 12.46484375 6.3515625 12.46484375 C6.80534401 20.33038997 6.80534401 20.33038997 5.3515625 23.96484375 C2.28628056 26.26380521 -0.91637453 26.66165176 -4.6484375 26.46484375 C-8.26934506 24.89053611 -9.44099034 23.77601449 -11.6484375 20.46484375 C-12.25629593 14.77500609 -12.95667377 7.84240531 -10.2734375 2.58984375 C-6.80358482 -0.21908461 -4.37497171 -0.26456319 0 0 Z " fill="#DCDCDC" transform="translate(212.6484375,592.53515625)"/>
<path d="M0 0 C0.7940625 0.06703125 1.588125 0.1340625 2.40625 0.203125 C4.5 0.75 4.5 0.75 6.5 3.75 C6.17 4.41 5.84 5.07 5.5 5.75 C4.56027344 5.62431641 4.56027344 5.62431641 3.6015625 5.49609375 C2.37566406 5.34333984 2.37566406 5.34333984 1.125 5.1875 C-0.09316406 5.03087891 -0.09316406 5.03087891 -1.3359375 4.87109375 C-3.54899186 4.56762672 -3.54899186 4.56762672 -5.5 5.75 C-5.5 7.07 -5.5 8.39 -5.5 9.75 C-4.34371094 10.14832031 -4.34371094 10.14832031 -3.1640625 10.5546875 C-2.16117187 10.90789063 -1.15828125 11.26109375 -0.125 11.625 C1.37160156 12.14707031 1.37160156 12.14707031 2.8984375 12.6796875 C5.5 13.75 5.5 13.75 7.5 15.75 C8 19.125 8 19.125 7.5 22.75 C4.1934857 26.0565143 1.43041889 26.99699649 -3.125 27.125 C-6.43868468 27.06686518 -8.61573174 26.38137345 -11.5 24.75 C-11.17 23.43 -10.84 22.11 -10.5 20.75 C-9.93796875 20.91371094 -9.3759375 21.07742188 -8.796875 21.24609375 C-6.36940944 21.77864997 -4.23110319 21.84898681 -1.75 21.8125 C-0.55117188 21.79896484 -0.55117188 21.79896484 0.671875 21.78515625 C1.27515625 21.77355469 1.8784375 21.76195312 2.5 21.75 C2.83 20.1 3.16 18.45 3.5 16.75 C2.65695312 16.56824219 1.81390625 16.38648438 0.9453125 16.19921875 C-0.15039062 15.94785156 -1.24609375 15.69648437 -2.375 15.4375 C-3.46554687 15.19386719 -4.55609375 14.95023438 -5.6796875 14.69921875 C-8.5 13.75 -8.5 13.75 -10.5 10.75 C-10.875 7.8125 -10.875 7.8125 -10.5 4.75 C-7.23943758 0.72863969 -5.08550313 -0.49534121 0 0 Z " fill="#D5D5D5" transform="translate(311.5,592.25)"/>
<path d="M0 0 C1.06347656 -0.00773438 2.12695312 -0.01546875 3.22265625 -0.0234375 C4.11855469 0.10804688 5.01445312 0.23953125 5.9375 0.375 C6.5975 1.365 7.2575 2.355 7.9375 3.375 C6.9475 4.035 5.9575 4.695 4.9375 5.375 C4.2775 5.045 3.6175 4.715 2.9375 4.375 C0.6045134 4.33477609 -1.72956666 4.33179753 -4.0625 4.375 C-4.0625 6.025 -4.0625 7.675 -4.0625 9.375 C-3.36382812 9.65214844 -2.66515625 9.92929687 -1.9453125 10.21484375 C-1.03523438 10.57707031 -0.12515625 10.93929687 0.8125 11.3125 C1.71742188 11.67214844 2.62234375 12.03179688 3.5546875 12.40234375 C5.9375 13.375 5.9375 13.375 7.9375 14.375 C8.53944175 21.59830097 8.53944175 21.59830097 6 24.875 C1.93357837 26.86671672 -1.60515593 27.06074524 -6.0625 26.375 C-8.33984375 25.3515625 -8.33984375 25.3515625 -10.0625 24.375 C-9.7325 23.055 -9.4025 21.735 -9.0625 20.375 C-8.0725 20.705 -7.0825 21.035 -6.0625 21.375 C-4.50131572 21.44240865 -2.9374748 21.46014456 -1.375 21.4375 C-0.56675781 21.42847656 0.24148438 21.41945313 1.07421875 21.41015625 C1.68910156 21.39855469 2.30398438 21.38695312 2.9375 21.375 C2.9375 19.725 2.9375 18.075 2.9375 16.375 C2.32261719 16.27703125 1.70773437 16.1790625 1.07421875 16.078125 C-5.45796599 14.86961873 -5.45796599 14.86961873 -8.125 12.6875 C-9.45395634 9.40940769 -9.44414776 6.87343776 -9.0625 3.375 C-6.65181653 -0.18754588 -4.09623827 -0.02986322 0 0 Z " fill="#D7D7D7" transform="translate(351.0625,592.625)"/>
<path d="M0 0 C1.06347656 -0.00773438 2.12695312 -0.01546875 3.22265625 -0.0234375 C4.11855469 0.10804688 5.01445313 0.23953125 5.9375 0.375 C6.5975 1.365 7.2575 2.355 7.9375 3.375 C5.9575 4.365 5.9575 4.365 3.9375 5.375 C3.6075 5.045 3.2775 4.715 2.9375 4.375 C0.60452567 4.33407063 -1.72955225 4.33258277 -4.0625 4.375 C-4.7439823 6.26679203 -4.7439823 6.26679203 -5.0625 8.375 C-2.85152756 10.58597244 -1.50509448 11.02510463 1.4375 11.9375 C3.71212048 12.65016518 5.80489849 13.30869925 7.9375 14.375 C8.1875 21 8.1875 21 5.9375 24.375 C5.2775 24.375 4.6175 24.375 3.9375 24.375 C3.9375 25.035 3.9375 25.695 3.9375 26.375 C2.33342672 26.40208567 0.7292215 26.42143483 -0.875 26.4375 C-2.21498047 26.45490234 -2.21498047 26.45490234 -3.58203125 26.47265625 C-6.0625 26.375 -6.0625 26.375 -9.0625 25.375 C-9.75 23.3125 -9.75 23.3125 -10.0625 21.375 C-5.72916667 21.375 -1.39583333 21.375 2.9375 21.375 C3.2675 19.725 3.5975 18.075 3.9375 16.375 C2.90689453 16.21064453 2.90689453 16.21064453 1.85546875 16.04296875 C0.95441406 15.88441406 0.05335938 15.72585938 -0.875 15.5625 C-1.76832031 15.41167969 -2.66164063 15.26085937 -3.58203125 15.10546875 C-6.31247884 14.30138419 -7.41480713 13.67747636 -9.0625 11.375 C-9.4609375 9.4375 -9.4609375 9.4375 -9.4375 7.375 C-9.44523438 6.694375 -9.45296875 6.01375 -9.4609375 5.3125 C-8.38177547 0.06481011 -4.74402197 -0.03458582 0 0 Z " fill="#C6C6C6" transform="translate(550.0625,592.625)"/>
<path d="M0 0 C0.85464844 0.00386719 1.70929687 0.00773438 2.58984375 0.01171875 C5.16278192 0.32469859 6.83755475 1.01676622 9.0625 2.3125 C8.0725 3.3025 7.0825 4.2925 6.0625 5.3125 C5.4025 4.9825 4.7425 4.6525 4.0625 4.3125 C1.7295134 4.27227609 -0.60456666 4.26929753 -2.9375 4.3125 C-2.9375 5.9625 -2.9375 7.6125 -2.9375 9.3125 C-2.23882813 9.58964844 -1.54015625 9.86679687 -0.8203125 10.15234375 C0.08976563 10.51457031 0.99984375 10.87679687 1.9375 11.25 C2.84242188 11.60964844 3.74734375 11.96929688 4.6796875 12.33984375 C7.0625 13.3125 7.0625 13.3125 9.0625 14.3125 C9.66444175 21.53580097 9.66444175 21.53580097 7.125 24.8125 C3.05857837 26.80421672 -0.48015593 26.99824524 -4.9375 26.3125 C-7.21484375 25.2890625 -7.21484375 25.2890625 -8.9375 24.3125 C-8.6075 22.9925 -8.2775 21.6725 -7.9375 20.3125 C-6.9475 20.6425 -5.9575 20.9725 -4.9375 21.3125 C-3.37631572 21.37990865 -1.8124748 21.39764456 -0.25 21.375 C0.55824219 21.36597656 1.36648438 21.35695313 2.19921875 21.34765625 C2.81410156 21.33605469 3.42898438 21.32445312 4.0625 21.3125 C4.0625 19.6625 4.0625 18.0125 4.0625 16.3125 C3.44761719 16.21453125 2.83273437 16.1165625 2.19921875 16.015625 C-4.33296599 14.80711873 -4.33296599 14.80711873 -7 12.625 C-8.32895634 9.34690769 -8.31914776 6.81093776 -7.9375 3.3125 C-5.66328545 0.13883725 -3.79278515 -0.07414467 0 0 Z " fill="#D7D7D7" transform="translate(526.9375,592.6875)"/>
<path d="M0 0 C1.06347656 -0.00773438 2.12695312 -0.01546875 3.22265625 -0.0234375 C4.11855469 0.10804688 5.01445313 0.23953125 5.9375 0.375 C6.5975 1.365 7.2575 2.355 7.9375 3.375 C6.9475 4.035 5.9575 4.695 4.9375 5.375 C4.2775 5.045 3.6175 4.715 2.9375 4.375 C0.6045134 4.33477609 -1.72956666 4.33179753 -4.0625 4.375 C-4.0625 6.025 -4.0625 7.675 -4.0625 9.375 C-3.36382813 9.65214844 -2.66515625 9.92929687 -1.9453125 10.21484375 C-1.03523437 10.57707031 -0.12515625 10.93929687 0.8125 11.3125 C1.71742188 11.67214844 2.62234375 12.03179688 3.5546875 12.40234375 C5.9375 13.375 5.9375 13.375 7.9375 14.375 C8.30544425 21.8565331 8.30544425 21.8565331 6.5625 24.3125 C3.72910544 26.16510414 1.92439419 26.53457729 -1.4375 26.5625 C-2.59378906 26.58376953 -2.59378906 26.58376953 -3.7734375 26.60546875 C-6.28084888 26.35301607 -7.89511902 25.62693467 -10.0625 24.375 C-9.7325 23.055 -9.4025 21.735 -9.0625 20.375 C-8.0725 20.705 -7.0825 21.035 -6.0625 21.375 C-4.16779184 21.4435495 -2.2708166 21.45980372 -0.375 21.4375 C0.61886719 21.42847656 1.61273437 21.41945313 2.63671875 21.41015625 C3.39597656 21.39855469 4.15523437 21.38695312 4.9375 21.375 C4.2673608 18.86216892 4.2673608 18.86216892 2.9375 16.375 C0.87067982 15.49011671 0.87067982 15.49011671 -1.5 15.3125 C-5.85881951 14.54164768 -5.85881951 14.54164768 -8.125 12.6875 C-9.45395634 9.40940769 -9.44414776 6.87343776 -9.0625 3.375 C-6.65181653 -0.18754588 -4.09623827 -0.02986322 0 0 Z " fill="#E1E1E1" transform="translate(582.0625,592.625)"/>
<path d="M0 0 C5.61 0 11.22 0 17 0 C17 1.32 17 2.64 17 4 C12.71 4 8.42 4 4 4 C4 6.64 4 9.28 4 12 C7.63 12 11.26 12 15 12 C15 13.32 15 14.64 15 16 C11.37 16 7.74 16 4 16 C4 19.63 4 23.26 4 27 C2.68 27 1.36 27 0 27 C0 18.09 0 9.18 0 0 Z " fill="#C7C7C7" transform="translate(466,592)"/>
<path d="M0 0 C0.99 0.103125 1.98 0.20625 3 0.3125 C5.38081145 3.88371718 5.26906871 5.57924633 5.25 9.8125 C5.25515625 10.9571875 5.2603125 12.101875 5.265625 13.28125 C5 16.3125 5 16.3125 3 19.3125 C0 19.625 0 19.625 -3 19.3125 C-5.49210439 16.82039561 -5.26015661 15.30889212 -5.2734375 11.90234375 C-5.26570313 11.21269531 -5.25796875 10.52304687 -5.25 9.8125 C-5.25773437 9.12285156 -5.26546875 8.43320312 -5.2734375 7.72265625 C-5.2454599 0.54640207 -5.2454599 0.54640207 0 0 Z " fill="#080808" transform="translate(452,595.6875)"/>
<path d="M0 0 C1.32 0 2.64 0 4 0 C4 7.59 4 15.18 4 23 C8.29 23 12.58 23 17 23 C17 24.32 17 25.64 17 27 C11.39 27 5.78 27 0 27 C0 18.09 0 9.18 0 0 Z " fill="#C5C5C5" transform="translate(171,592)"/>
<path d="M0 0 C1.32 0 2.64 0 4 0 C4 7.59 4 15.18 4 23 C8.29 23 12.58 23 17 23 C17 24.32 17 25.64 17 27 C11.39 27 5.78 27 0 27 C0 18.09 0 9.18 0 0 Z " fill="#C5C5C5" transform="translate(150,592)"/>
<path d="M0 0 C1.32 0 2.64 0 4 0 C4.67154933 1.28913487 5.33708859 2.58140204 6 3.875 C6.37125 4.59429688 6.7425 5.31359375 7.125 6.0546875 C8 8 8 8 8 10 C8.66 10 9.32 10 10 10 C10.28875 9.0925 10.5775 8.185 10.875 7.25 C11.76531776 4.67797092 12.71494413 2.38653234 14 0 C15.32 0 16.64 0 18 0 C16.95911403 3.46961989 15.73493583 6.50072972 13.9375 9.625 C11.23008444 14.79827732 11.19133268 20.26001965 11 26 C9.68 26 8.36 26 7 26 C6.99742187 25.18917969 6.99484375 24.37835937 6.9921875 23.54296875 C6.72390308 15.8610914 5.34417733 10.68017203 1.27734375 4.14453125 C0 2 0 2 0 0 Z " fill="#DCDCDC" transform="translate(321,593)"/>
<path d="M0 0 C5.94 0 11.88 0 18 0 C18 0.99 18 1.98 18 3 C15.69 3 13.38 3 11 3 C11 10.59 11 18.18 11 26 C9.68 26 8.36 26 7 26 C7 18.41 7 10.82 7 3 C4.69 3 2.38 3 0 3 C0 2.01 0 1.02 0 0 Z " fill="#D5D5D5" transform="translate(660,593)"/>
<path d="M0 0 C5.94 0 11.88 0 18 0 C18 0.99 18 1.98 18 3 C15.69 3 13.38 3 11 3 C11 10.59 11 18.18 11 26 C9.68 26 8.36 26 7 26 C7 18.41 7 10.82 7 3 C4.69 3 2.38 3 0 3 C0 2.01 0 1.02 0 0 Z " fill="#D4D4D4" transform="translate(592,593)"/>
<path d="M0 0 C5.94 0 11.88 0 18 0 C18 0.99 18 1.98 18 3 C15.69 3 13.38 3 11 3 C11 10.59 11 18.18 11 26 C9.68 26 8.36 26 7 26 C7 18.41 7 10.82 7 3 C4.69 3 2.38 3 0 3 C0 2.01 0 1.02 0 0 Z " fill="#D5D5D5" transform="translate(361,593)"/>
<path d="M0 0 C5.94 0 11.88 0 18 0 C18 0.99 18 1.98 18 3 C15.69 3 13.38 3 11 3 C11 10.59 11 18.18 11 26 C9.68 26 8.36 26 7 26 C7 18.41 7 10.82 7 3 C4.69 3 2.38 3 0 3 C0 2.01 0 1.02 0 0 Z " fill="#DFDFDF" transform="translate(106,593)"/>
<path d="M0 0 C5.94 0 11.88 0 18 0 C18 0.99 18 1.98 18 3 C15.36 3 12.72 3 10 3 C10 10.26 10 17.52 10 25 C9.01 25 8.02 25 7 25 C7 17.74 7 10.48 7 3 C4.69 3 2.38 3 0 3 C0 2.01 0 1.02 0 0 Z " fill="#E8E8E8" transform="translate(271,593)"/>
<path d="M0 0 C3.25 -0.3125 3.25 -0.3125 7 0 C10.0398082 2.81922034 10.93083529 4.49406284 11.49609375 8.62890625 C11.47675781 9.92699219 11.45742188 11.22507812 11.4375 12.5625 C11.43621094 13.86316406 11.43492187 15.16382813 11.43359375 16.50390625 C10.99352742 20.05218884 10.43368726 21.46302628 8 24 C6.68 23.67 5.36 23.34 4 23 C4.32613281 22.47535156 4.65226562 21.95070313 4.98828125 21.41015625 C6.29308763 18.3017951 6.2295721 15.79944366 6.1875 12.4375 C6.18105469 11.30183594 6.17460937 10.16617188 6.16796875 8.99609375 C6.12865471 5.94824793 6.12865471 5.94824793 5 3 C3.02 3 1.04 3 -1 3 C-0.67 2.01 -0.34 1.02 0 0 Z " fill="#DCDCDC" transform="translate(450,593)"/>
<path d="M0 0 C1.32 0 2.64 0 4 0 C4 8.91 4 17.82 4 27 C2.68 27 1.36 27 0 27 C0 18.09 0 9.18 0 0 Z " fill="#CECECE" transform="translate(72,592)"/>
<path d="M0 0 C1.32 0 2.64 0 4 0 C4 8.58 4 17.16 4 26 C2.68 26 1.36 26 0 26 C0 17.42 0 8.84 0 0 Z " fill="#D7D7D7" transform="translate(563,593)"/>
<path d="M0 0 C1.06347656 -0.00773438 2.12695312 -0.01546875 3.22265625 -0.0234375 C4.11855469 0.10804688 5.01445313 0.23953125 5.9375 0.375 C6.5975 1.365 7.2575 2.355 7.9375 3.375 C5.9575 4.365 5.9575 4.365 3.9375 5.375 C3.6075 5.045 3.2775 4.715 2.9375 4.375 C0.60452567 4.33407063 -1.72955225 4.33258277 -4.0625 4.375 C-4.7439823 6.26679203 -4.7439823 6.26679203 -5.0625 8.375 C-3.11033565 10.32716435 -1.53050047 11.22326645 0.9375 12.375 C0.6075 13.035 0.2775 13.695 -0.0625 14.375 C-5.39583333 14.73055556 -5.39583333 14.73055556 -7.9375 13.375 C-9.69778603 10.24560262 -9.78164054 6.87199715 -9.0625 3.375 C-6.68774687 -0.2073921 -4.08277938 -0.0297651 0 0 Z " fill="#D7D7D7" transform="translate(550.0625,592.625)"/>
<path d="M0 0 C1.06347656 -0.00773438 2.12695312 -0.01546875 3.22265625 -0.0234375 C4.11855469 0.10804688 5.01445312 0.23953125 5.9375 0.375 C6.5975 1.365 7.2575 2.355 7.9375 3.375 C6.9475 4.035 5.9575 4.695 4.9375 5.375 C4.2775 5.045 3.6175 4.715 2.9375 4.375 C0.6045134 4.33477609 -1.72956666 4.33179753 -4.0625 4.375 C-4.0625 6.025 -4.0625 7.675 -4.0625 9.375 C-2.7425 10.035 -1.4225 10.695 -0.0625 11.375 C-0.0625 12.035 -0.0625 12.695 -0.0625 13.375 C-2.0425 13.705 -4.0225 14.035 -6.0625 14.375 C-8.54442093 11.7896657 -9.05475664 10.44856189 -9.4375 6.8125 C-9.0625 3.375 -9.0625 3.375 -7.91796875 1.68359375 C-5.26218253 -0.18943443 -3.21738384 -0.02345602 0 0 Z " fill="#D9D9D9" transform="translate(351.0625,592.625)"/>
<path d="M0 0 C0.85464844 0.00386719 1.70929687 0.00773438 2.58984375 0.01171875 C5.16278192 0.32469859 6.83755475 1.01676622 9.0625 2.3125 C8.0725 3.3025 7.0825 4.2925 6.0625 5.3125 C5.4025 4.9825 4.7425 4.6525 4.0625 4.3125 C1.7295134 4.27227609 -0.60456666 4.26929753 -2.9375 4.3125 C-2.9375 5.9625 -2.9375 7.6125 -2.9375 9.3125 C-1.6175 9.9725 -0.2975 10.6325 1.0625 11.3125 C1.0625 11.9725 1.0625 12.6325 1.0625 13.3125 C-0.9175 13.6425 -2.8975 13.9725 -4.9375 14.3125 C-7.41942093 11.7271657 -7.92975664 10.38606189 -8.3125 6.75 C-7.9375 3.3125 -7.9375 3.3125 -6.72265625 1.6171875 C-4.36901069 -0.10298234 -2.89188177 -0.05653303 0 0 Z " fill="#DADADA" transform="translate(526.9375,592.6875)"/>
<path d="M0 0 C0.99 0 1.98 0 3 0 C3 8.25 3 16.5 3 25 C2.01 25 1.02 25 0 25 C0 16.75 0 8.5 0 0 Z " fill="#EFEFEF" transform="translate(192,593)"/>
<path d="M0 0 C-0.71027344 0.49371094 -1.42054688 0.98742187 -2.15234375 1.49609375 C-3.07144531 2.13675781 -3.99054688 2.77742188 -4.9375 3.4375 C-5.85402344 4.07558594 -6.77054688 4.71367187 -7.71484375 5.37109375 C-9.86120706 6.8060882 -9.86120706 6.8060882 -11 8 C-11.16010481 10.73701178 -11.25946828 13.4516759 -11.31640625 16.19140625 C-11.33718735 17.01124496 -11.35796844 17.83108368 -11.37937927 18.67576599 C-11.44496494 21.30458901 -11.50380126 23.93351504 -11.5625 26.5625 C-11.60567667 28.34050561 -11.64929067 30.11850065 -11.69335938 31.89648438 C-11.80065543 36.26421634 -11.90189704 40.63205227 -12 45 C-12.33 45 -12.66 45 -13 45 C-13.2730182 39.57438373 -13.4719754 34.15279802 -13.60424805 28.72192383 C-13.65939582 26.87746534 -13.73434394 25.0334842 -13.82983398 23.19067383 C-14.6031234 7.87788927 -14.6031234 7.87788927 -10.57275391 3.15673828 C-3.27623457 -1.63811728 -3.27623457 -1.63811728 0 0 Z " fill="#1C1B72" transform="translate(230,254)"/>
<path d="M0 0 C1.90389849 2.85584773 2.69462177 4.9311762 3.625 8.1875 C3.88539063 9.08855469 4.14578125 9.98960937 4.4140625 10.91796875 C4.60742188 11.60503906 4.80078125 12.29210937 5 13 C2.03 13 -0.94 13 -4 13 C-3.52140759 11.39566191 -3.04210442 9.79153584 -2.5625 8.1875 C-2.29566406 7.29417969 -2.02882813 6.40085937 -1.75390625 5.48046875 C-1.19612127 3.64526945 -0.60655425 1.81966274 0 0 Z " fill="#2C2C2C" transform="translate(505,597)"/>
<path d="M0 0 C0.66 0 1.32 0 2 0 C2.50615298 1.26839526 3.00469099 2.53983102 3.5 3.8125 C3.91765625 4.87404297 3.91765625 4.87404297 4.34375 5.95703125 C5 8 5 8 5 11 C2.36 11 -0.28 11 -3 11 C-2.32829194 7.1936543 -1.27253436 3.64793184 0 0 Z " fill="#232323" transform="translate(620,599)"/>
<path d="M0 0 C3.63 0.66 7.26 1.32 11 2 C11 2.33 11 2.66 11 3 C9.02 3 7.04 3 5 3 C5 3.66 5 4.32 5 5 C7.31 5 9.62 5 12 5 C12 5.33 12 5.66 12 6 C10.58376784 6.05447047 9.16691809 6.09300508 7.75 6.125 C6.96109375 6.14820313 6.1721875 6.17140625 5.359375 6.1953125 C2.79268059 5.9828378 1.2083933 5.28654105 -1 4 C-0.67 2.68 -0.34 1.36 0 0 Z " fill="#B2B2B2" transform="translate(301,613)"/>
<path d="M0 0 C3.63 0.66 7.26 1.32 11 2 C11 2.33 11 2.66 11 3 C9.02 3 7.04 3 5 3 C5 3.66 5 4.32 5 5 C7.31 5 9.62 5 12 5 C12 5.33 12 5.66 12 6 C10.58376784 6.05447047 9.16691809 6.09300508 7.75 6.125 C6.96109375 6.14820313 6.1721875 6.17140625 5.359375 6.1953125 C2.79268059 5.9828378 1.2083933 5.28654105 -1 4 C-0.67 2.68 -0.34 1.36 0 0 Z " fill="#BABABA" transform="translate(573,613)"/>
<path d="M0 0 C3.63 0.66 7.26 1.32 11 2 C11 2.33 11 2.66 11 3 C9.02 3 7.04 3 5 3 C5 3.66 5 4.32 5 5 C7.31 5 9.62 5 12 5 C12 5.33 12 5.66 12 6 C10.58376784 6.05447047 9.16691809 6.09300508 7.75 6.125 C6.96109375 6.14820313 6.1721875 6.17140625 5.359375 6.1953125 C2.79268059 5.9828378 1.2083933 5.28654105 -1 4 C-0.67 2.68 -0.34 1.36 0 0 Z " fill="#BBBBBB" transform="translate(519,613)"/>
<path d="M0 0 C3.63 0.66 7.26 1.32 11 2 C11 2.33 11 2.66 11 3 C9.02 3 7.04 3 5 3 C5 3.66 5 4.32 5 5 C7.31 5 9.62 5 12 5 C12 5.33 12 5.66 12 6 C10.58376784 6.05447047 9.16691809 6.09300508 7.75 6.125 C6.96109375 6.14820313 6.1721875 6.17140625 5.359375 6.1953125 C2.79268059 5.9828378 1.2083933 5.28654105 -1 4 C-0.67 2.68 -0.34 1.36 0 0 Z " fill="#BABABA" transform="translate(342,613)"/>
<path d="M0 0 C1.051875 0.4640625 1.051875 0.4640625 2.125 0.9375 C5.08936657 2.03302678 7.87698108 2.56422992 11 3 C11 3.66 11 4.32 11 5 C6.45194365 5.17835515 3.1205746 4.99785435 -1 3 C-0.67 2.01 -0.34 1.02 0 0 Z " fill="#E3E3E3" transform="translate(541,613)"/>
<path d="M0 0 C1.32 0.66 2.64 1.32 4 2 C3.67 2.99 3.34 3.98 3 5 C1.54119891 4.85892253 0.08296449 4.71197585 -1.375 4.5625 C-2.59316406 4.44068359 -2.59316406 4.44068359 -3.8359375 4.31640625 C-6 4 -6 4 -8 3 C-7 2 -7 2 -3.4375 1.9375 C-2.303125 1.958125 -1.16875 1.97875 0 2 C0 1.34 0 0.68 0 0 Z " fill="#C0C0C0" transform="translate(314,593)"/>
<path d="M0 0 C0.625 1.8125 0.625 1.8125 1 4 C0.01 5.485 0.01 5.485 -1 7 C-2.32 7 -3.64 7 -5 7 C-5 6.34 -5 5.68 -5 5 C-4.34 5 -3.68 5 -3 5 C-2.87625 4.360625 -2.7525 3.72125 -2.625 3.0625 C-2.41875 2.381875 -2.2125 1.70125 -2 1 C-1.34 0.67 -0.68 0.34 0 0 Z " fill="#CECECE" transform="translate(420,603)"/>
<path d="M0 0 C1.32 0.66 2.64 1.32 4 2 C3 3.625 3 3.625 1 5 C-1.8158905 4.65009645 -4.2716858 3.84980278 -7 3 C-7 2.67 -7 2.34 -7 2 C-4.69 2 -2.38 2 0 2 C0 1.34 0 0.68 0 0 Z " fill="#C3C3C3" transform="translate(586,593)"/>
<path d="M0 0 C1.32 0.66 2.64 1.32 4 2 C3 3.625 3 3.625 1 5 C-1.8158905 4.65009645 -4.2716858 3.84980278 -7 3 C-7 2.67 -7 2.34 -7 2 C-4.69 2 -2.38 2 0 2 C0 1.34 0 0.68 0 0 Z " fill="#C3C3C3" transform="translate(355,593)"/>
<path d="M0 0 C1.65 0.33 3.3 0.66 5 1 C4.01 2.485 4.01 2.485 3 4 C0.03 3.67 -2.94 3.34 -6 3 C-6 2.67 -6 2.34 -6 2 C-4.02 2 -2.04 2 0 2 C0 1.34 0 0.68 0 0 Z " fill="#C3C3C3" transform="translate(582,604)"/>
<path d="M0 0 C-1 1.625 -1 1.625 -3 3 C-5.8158905 2.65009645 -8.2716858 1.84980278 -11 1 C-11 0.67 -11 0.34 -11 0 C-3.57142857 -1.28571429 -3.57142857 -1.28571429 0 0 Z " fill="#C8C8C8" transform="translate(536,595)"/>
</svg>
